<?xml version="1.0" encoding="UTF-8"?>
<svg width="640px" height="402px" viewBox="0 0 640 402" version="1.1" xmlns="http://www.w3.org/2000/svg" xmlns:xlink="http://www.w3.org/1999/xlink">
    <title>halas.codes logo</title>
    <defs></defs>
    <g id="Page-1" stroke="none" stroke-width="1" fill="none" fill-rule="evenodd">
        <g id="logo" transform="translate(11.000000, 6.000000)" fill="#DAE1E7" fill-rule="nonzero">
            <g id="Group">
                <g id="Shape">
                    <polygon points="247.978 148.836 57.697 148.836 57.697 88.528 0.509 88.528 0.509 148.836 0.509 206.024 0.509 323.52 57.697 323.52 57.697 206.024 247.978 206.024 247.978 291.287 305.167 291.287 305.167 206.024 305.167 148.836 305.167 0.146 247.978 0.146"></polygon>
                    <polygon points="557.834 56.295 325.962 56.295 325.962 111.404 557.834 111.404 557.834 177.95 538.078 177.95 383.15 177.95 325.962 177.95 325.962 234.099 325.962 379.668 383.15 379.668 383.15 234.099 538.078 234.099 538.078 303.764 595.267 303.764 595.267 234.099 595.267 206.024 615.022 206.024 615.022 111.404 615.022 56.295"></polygon>
                </g>
            </g>
        </g>
    </g>
</svg>
